<svg width="420" height="320" viewBox="0 0 420 320" xmlns="http://www.w3.org/2000/svg" role="img" aria-label="People celebrating trades">
  <defs>
    <linearGradient id="confetti" x1="0" x2="1" y1="0" y2="1">
      <stop offset="0%" stop-color="#FF7AC8" />
      <stop offset="50%" stop-color="#FFB347" />
      <stop offset="100%" stop-color="#6BCBFF" />
    </linearGradient>
  </defs>
  <rect width="420" height="320" rx="34" fill="#0F172A" />
  <g opacity="0.15" fill="url(#confetti)">
    <circle cx="60" cy="90" r="8" />
    <circle cx="140" cy="50" r="6" />
    <circle cx="330" cy="70" r="7" />
    <circle cx="370" cy="230" r="6" />
    <circle cx="210" cy="40" r="5" />
    <circle cx="80" cy="230" r="7" />
  </g>
  <g stroke="#FFB347" stroke-width="8" stroke-linecap="round">
    <path d="M100 250 L70 170" />
    <path d="M320 250 L350 170" />
  </g>
  <g fill="none" stroke="#6BCBFF" stroke-width="10" stroke-linecap="round">
    <path d="M140 250 Q180 200 220 250" />
    <path d="M200 250 Q240 180 280 250" />
  </g>
  <g fill="#FF7AC8">
    <circle cx="140" cy="250" r="18" />
    <circle cx="200" cy="250" r="18" />
    <circle cx="260" cy="250" r="18" />
    <circle cx="320" cy="250" r="18" />
  </g>
  <g fill="#FFFFFF">
    <rect x="110" y="120" width="40" height="80" rx="12" />
    <rect x="180" y="80" width="60" height="120" rx="20" />
    <rect x="270" y="120" width="40" height="80" rx="12" />
  </g>
  <circle cx="200" cy="80" r="36" fill="#FFE47A" stroke="#FFB347" stroke-width="6" />
  <path d="M180 70 q20 -15 40 0" stroke="#0F172A" stroke-width="6" fill="none" stroke-linecap="round" />
  <circle cx="188" cy="80" r="5" fill="#0F172A" />
  <circle cx="212" cy="80" r="5" fill="#0F172A" />
  <path d="M188 95 q12 12 24 0" stroke="#0F172A" stroke-width="6" fill="none" stroke-linecap="round" />
  <g stroke="#6BCBFF" stroke-width="6" stroke-linecap="round">
    <path d="M60 60 l20 -30" />
    <path d="M360 260 l20 -30" />
    <path d="M60 260 l20 30" />
    <path d="M360 60 l20 30" />
  </g>
</svg>
